{"title":"Disney Princess : A Christmas of Enchantment (2005)","uid":9364500,"size":639173697,"categoryP":"video","categoryS":"movies","magnet":"?xt=urn:btih:5dfd5230b23baca4e70583369d26942fe89efbf2&amp;dn=Disney+Princess+%3A+A+Christmas+of+Enchantment+%282005%29&amp;tr=udp%3A%2F%2Ftracker.openbittorrent.com%3A80&amp;tr=udp%3A%2F%2Fopen.demonii.com%3A1337&amp;tr=udp%3A%2F%2Ftracker.coppersurfer.tk%3A6969&amp;tr=udp%3A%2F%2Fexodus.desync.com%3A6969","seeders":2,"leechers":0,"uploader":"7","files":-1,"time":1387385107,"description":"General\nComplete name                            : Disney Princess A Christmas of Enchantment (2005).avi\nFormat                                   : AVI\nFormat/Info                              : Audio Video Interleave\nFile size                                : 610 MiB\nDuration                                 : 1h 2mn\nOverall bit rate                         : 1 360 Kbps\n\nVideo\nID                                       : 0\nFormat                                   : MPEG-4 Visual\nFormat profile                           : Simple@L3\nFormat settings, BVOP                    : No\nFormat settings, QPel                    : No\nFormat settings, GMC                     : No warppoints\nFormat settings, Matrix                  : Default (H.263)\nCodec ID                                 : XVID\nCodec ID/Hint                            : XviD\nDuration                                 : 1h 2mn\nBit rate                                 : 900 Kbps\nWidth                                    : 640 pixels\nHeight                                   : 480 pixels\nDisplay aspect ratio                     : 4:3\nFrame rate                               : 29.970 fps\nColor space                              : YUV\nChroma subsampling                       : 4:2:0\nBit depth                                : 8 bits\nScan type                                : Progressive\nCompression mode                         : Lossy\nBits/(Pixel*Frame)                       : 0.098\nStream size                              : 403 MiB (66%)\nWriting library                          : XviD 1.1.0 (UTC 2005-11-22)\n\nAudio\nID                                       : 1\nFormat                                   : AC-3\nFormat/Info                              : Audio Coding 3\nMode extension                           : CM (complete main)\nFormat settings, Endianness              : Big\nCodec ID                                 : 2000\nDuration                                 : 1h 2mn\nBit rate mode                            : Constant\nBit rate                                 : 448 Kbps\nChannel(s)                               : 6 channels\nChannel positions                        : Front: L C R, Side: L R, LFE\nSampling rate                            : 48.0 KHz\nBit depth                                : 16 bits\nCompression mode                         : Lossy\nStream size                              : 201 MiB (33%)\nAlignment                                : Aligned on interleaves\nInterleave, duration                     : 32 ms (0.96 video frame)\n &lt;a href=&quot;\nhttp://lookpic.com/O/i2/495/up20sw2s.jpeg&quot; rel=&quot;nofollow&quot; target=&quot;_NEW&quot;&gt;\nhttp://lookpic.com/O/i2/495/up20sw2s.jpeg&lt;/a&gt;","torrent":{"xt":"urn:btih:5dfd5230b23baca4e70583369d26942fe89efbf2","amp;dn":"Disney+Princess+%3A+A+Christmas+of+Enchantment+%282005%29","amp;tr":["udp%3A%2F%2Ftracker.openbittorrent.com%3A80","udp%3A%2F%2Fopen.demonii.com%3A1337","udp%3A%2F%2Ftracker.coppersurfer.tk%3A6969","udp%3A%2F%2Fexodus.desync.com%3A6969"],"infoHash":"5dfd5230b23baca4e70583369d26942fe89efbf2","infoHashBuffer":{"type":"Buffer","data":[93,253,82,48,178,59,172,164,231,5,131,54,157,38,148,47,232,158,251,242]},"announce":[],"urlList":[]}}